<?xml version="1.0" encoding="UTF-8"?>
<svg id="Layer_2" data-name="Layer 2" xmlns="http://www.w3.org/2000/svg" viewBox="0 0 500 474.11">
  <defs>
    <style>
      .cls-1 {
        fill: #000000;
      }
    </style>
  </defs>
  <g id="GRID">
    <path class="cls-1" d="M500,218.82v36.47h-72.94c-14.99,0-29.61,1.51-43.76,4.38-9.99,2.02-19.73,4.74-29.18,8.08-84.99,30.03-145.88,111.09-145.88,206.36h-72.94c0-91.94,48.6-172.5,121.48-217.45-84.52,9.35-154.52,66.88-181.97,144.51H0c18.33-61.58,59.25-113.4,113.15-145.88,11.63-7.02,23.89-13.13,36.63-18.23-12.75-5.11-25-11.22-36.63-18.23C59.25,186.34,18.33,134.52,0,72.94h74.82c27.44,77.63,97.45,135.16,181.98,144.53C183.9,172.52,135.3,91.94,135.3,0h72.94c0,95.26,60.89,176.33,145.88,206.36h.02c9.43,3.34,19.18,6.05,29.16,8.08,14.15,2.86,28.77,4.38,43.76,4.38h72.94Z"/>
  </g>
</svg>
